<svg xmlns="http://www.w3.org/2000/svg" style="display: none;">
    <symbol id="active search" viewBox="0 0 100 100">
      <title>active search icon</title>
      <path d="M61.107 31.15c-7.983-7.982-20.974-7.983-28.957 0-7.984 7.984-7.984 20.974 0 28.958 7.983 7.983 20.974 7.984 28.957 0 7.984-7.984 7.984-20.974 0-28.957zm-24.092 4.686c-3.58 3.58-6.154 7.757-7.72 12.145-.342-4.886 1.53-10.146 5.554-14.17 3.967-3.966 9.138-5.845 13.966-5.57-4.262 1.577-8.315 4.11-11.8 7.596zM50 0C22.386 0 0 22.386 0 50s22.386 50 50 50 50-22.386 50-50S77.614 0 50 0zm30.983 79.983c-1.354 1.354-3.552 1.355-4.907 0L65.768 69.675c-1.005-1.005-1.26-2.472-.773-3.718l-1.953-1.953c-9.663 8.642-24.558 8.325-33.835-.953-9.607-9.604-9.607-25.237 0-34.844 9.607-9.608 25.24-9.608 34.845 0 9.278 9.277 9.596 24.172.953 33.835l1.954 1.956c1.243-.487 2.71-.232 3.717.773l10.308 10.306c1.354 1.356 1.354 3.553-.002 4.907z"/>
    </symbol>
    <symbol id="code optimization" viewBox="0 0 100 100">
      <title>code optimization icon</title>
      <circle cx="76" cy="28.4" r="2.4"/><path d="M26 73h52V33H26v40zm31-17.516l9.12-3.58-9.12-3.53V44.73l13 5.63v3.114l-13 5.683v-3.673zM48.88 59l3.62-14.958c.19-.795.37-1.34.544-1.634.174-.294.51-.44 1.013-.44.433 0 .763.103.992.31.228.21.343.495.343.857 0 .268-.092.756-.272 1.466l-3.633 14.96c-.12.492-.226.882-.316 1.167s-.228.51-.414.667c-.186.16-.457.24-.81.24-.883 0-1.325-.382-1.325-1.14 0-.2.088-.698.26-1.494zM34 50.334l13-5.656v3.697l-9.094 3.504L47 55.46v3.67l-13-5.656v-3.14zM50 0C22.386 0 0 22.386 0 50s22.386 50 50 50 50-22.386 50-50S77.614 0 50 0zm32 73.4c0 1.988-1.61 3.6-3.6 3.6H25.6c-1.988 0-3.6-1.612-3.6-3.6V27.6c0-1.988 1.612-3.6 3.6-3.6h52.8c1.988 0 3.6 1.612 3.6 3.6v45.8z"/><circle cx="62.8" cy="28.4" r="2.4"/><path d="M69.4 30.8c1.322 0 2.4-1.076 2.4-2.4S70.722 26 69.4 26 67 27.076 67 28.4s1.077 2.4 2.4 2.4z"/>
    </symbol>
    <symbol id="landing page" viewBox="0 0 100 100">
      <title>landing page icon</title>
      <path d="M26 73h52V33H26v40zm15.58-28.356l15.215 6.076 13.148-4.373c1.205-.402 4.2-.3 4.522.872.35 1.27-2.092 3.216-3.292 3.616l-5.383 1.79C58.81 54.95 43.022 60.1 43.022 60.1c-2.055.34-11.017-.93-9.816-1.33 1.395-.464 9.082-3.143 13.278-4.594l-6.51-7.818 1.606-1.714zm-10.86 8.562l6.702 3.25-4.688 1.65L29.5 54.33l1.22-1.126zM50 0C22.386 0 0 22.386 0 50s22.386 50 50 50 50-22.386 50-50S77.614 0 50 0zm32 73.4c0 1.988-1.61 3.6-3.6 3.6H25.6c-1.988 0-3.6-1.612-3.6-3.6V27.6c0-1.988 1.612-3.6 3.6-3.6h52.8c1.988 0 3.6 1.612 3.6 3.6v45.8z"/><circle cx="62.8" cy="28.4" r="2.4"/><path d="M69.4 30.8c1.322 0 2.4-1.076 2.4-2.4S70.722 26 69.4 26 67 27.076 67 28.4s1.077 2.4 2.4 2.4z"/><circle cx="76" cy="28.4" r="2.4"/>
    </symbol>
    <symbol id="website design" viewBox="0 0 100 100">
      <title>website design icon</title>
      <path d="M65.666 25.15s.29-1.244 2.61-2.613c0 0-2.445-.373-3.69 1.66.83.663 1.08.953 1.08.953zM50 0C22.386 0 0 22.386 0 50s22.386 50 50 50 50-22.386 50-50S77.614 0 50 0zm20.046 22.253c1.61 1.298 1.553 4.042-.128 6.13L49.89 50.173c-1.68 2.086-1.292 1.993-2.903.695-1.61-1.297-1.62-.9.063-2.985L64.085 23.68c1.68-2.085 4.35-2.725 5.96-1.427zM46.23 56.443c-5.57 2.307-13.55.505-10.23.48 3.32-.025 3.734-.826 4.816-4.16 1.996-5.26 10.985 1.378 5.414 3.68zM58.793 78.37c-.79.105-8.242.01-8.793 0-.55.01-8.003.105-8.793 0-.82-.11 0-.768 1.04-1.532 1.04-.766 1.147-2.13 1.147-2.13l.39-2.708h12.43l.39 2.708s.11 1.257 1.15 2.022c1.038.766 1.858 1.53 1.04 1.64zM80 67.63C80 68.957 78.926 70 77.6 70H22.4c-1.325 0-2.4-1.043-2.4-2.368v-34.8C20 31.506 21.075 30 22.4 30h34.45l-2.534 4H24v29h52V34h-9.2l3.31-4h7.49c1.326 0 2.4 1.506 2.4 2.832v34.8z"/>
    </symbol></svg>